:version 1.10
:name ASF
:units
  mass 1
  length 1
  angle deg
:documentation
  ASF file generated by Kaydara
:root
  axis xyz
  order  tx ty tz rx ry rz
  position 0 0 0
  orientation 0 0 0
:bonedata
  begin
    id 1
    name RightUpLegDummy
    direction -0.718183 -0.695806 0.00816078
    length 4.904
    axis 0 0 0 xyz
  end
  begin
    id 2
    name RightUpLeg
    direction 3.53373e-006 -0.995788 0.0916898
    length 17.4976
    axis -3.49089 -0.000906625 0.000286804 xyz
    dof rx ry rz
  end
  begin
    id 3
    name RightLeg
    direction 0.00371092 -0.995096 -0.0988419
    length 16.5821
    axis 3.68512 0.0193738 -0.131023 xyz
    dof rx ry rz
  end
  begin
    id 4
    name RightFoot
    direction 0.00079151 -0.46099 0.887405
    length 3.77069
    axis 4.81691e-005 -0.120479 -0.188788 xyz
    dof rx ry rz
  end
  begin
    id 5
    name RightToes
    direction 0.00124746 -0.014064 0.9999
    length 3.85082
    axis 0.000481921 0.542163 -0.142578 xyz
    dof rx ry rz
  end
  begin
    id 6
    name SpineDummy
    direction 8.3039e-015 1 4.57515e-016
    length 4.6813
    axis 0 0 0 xyz
  end
  begin
    id 7
    name Spine
    direction -3.15643e-008 0.999988 0.00495137
    length 10.1015
    axis -0.001389 0.000121418 2.40972e-006 xyz
    dof rx ry rz
  end
  begin
    id 8
    name Spine1
    direction 0 0 0
    length 0
    axis -0.001389 0.000121451 1.30017e-006 xyz
    dof rx ry rz
  end
  begin
    id 9
    name HEadDummy
    direction -1.99912e-008 0.999999 0.00127422
    length 3.43865
    axis -0.001389 0.000121451 1.30017e-006 xyz
  end
  begin
    id 10
    name HEad
    direction -0.0222688 0.980941 0.193023
    length 5.12695
    axis -0.001389 0.000121451 1.30017e-006 xyz
    dof rx ry rz
  end
  begin
    id 11
    name LeftShoulder1Dummy
    direction 0.998891 -0.0402509 -0.0244456
    length 3.5433
    axis -0.001389 0.000121451 1.30017e-006 xyz
  end
  begin
    id 12
    name LeftShoulder1
    direction 0.99951 -0.000327763 0.0313091
    length 4.05031
    axis -0.001389 0.000121451 1.30017e-006 xyz
    dof rx ry rz
  end
  begin
    id 13
    name LeftArm
    direction 0.998561 -0.00100056 -0.0536182
    length 10.3537
    axis -23.1894 0.134784 0.967509 xyz
    dof rx ry rz
  end
  begin
    id 14
    name LeftForeArm
    direction 0.998903 0.00866432 0.046012
    length 8.70632
    axis -9.91835 -0.06569 -0.177794 xyz
    dof rx ry rz
  end
  begin
    id 15
    name LeftHand
    direction 0.992938 -0.0411637 0.11126
    length 5.32135
    axis -0.00960232 -0.00340091 0.185173 xyz
    dof rx ry rz
  end
  begin
    id 16
    name RightShoulderDummy
    direction -0.998891 -0.0402509 -0.0244414
    length 3.5433
    axis -0.001389 0.000121451 1.30017e-006 xyz
  end
  begin
    id 17
    name RightShoulder
    direction -0.99951 -0.000327807 0.0313133
    length 4.05031
    axis 0.215806 0.000203643 -0.0068026 xyz
    dof rx ry rz
  end
  begin
    id 18
    name RightArm
    direction -0.998573 -0.000999564 -0.053403
    length 10.3947
    axis -23.2009 -0.134239 -0.964101 xyz
    dof rx ry rz
  end
  begin
    id 19
    name RightForeArm
    direction -0.998898 0.00868028 0.0461306
    length 8.68355
    axis -9.92322 0.0658061 0.178868 xyz
    dof rx ry rz
  end
  begin
    id 20
    name RightHand
    direction -0.992843 -0.0414603 0.112003
    length 5.28593
    axis -0.00960638 0.00330671 -0.185228 xyz
    dof rx ry rz
  end
  begin
    id 21
    name LeftUpLegDummy
    direction 0.718183 -0.695806 0.00816078
    length 4.904
    axis 0 0 0 xyz
  end
  begin
    id 22
    name LeftUpLeg
    direction -6.81752e-006 -0.995793 0.0916337
    length 17.4976
    axis -3.48766 0.00143442 -0.000524262 xyz
    dof rx ry rz
  end
  begin
    id 23
    name LeftLeg
    direction -0.00601358 -0.995091 -0.0987824
    length 16.5821
    axis 3.68178 -0.00654042 -0.000285133 xyz
    dof rx ry rz
  end
  begin
    id 24
    name LeftFoot
    direction -0.00417578 -0.460984 0.887399
    length 3.77069
    axis 1.87233e-006 4.66016e-005 -8.6538e-006 xyz
    dof rx ry rz
  end
  begin
    id 25
    name LeftToes
    direction 0.00818058 -0.00485161 0.999955
    length 3.85048
    axis 1.06247e-005 4.65869e-005 -8.65513e-006 xyz
    dof rx ry rz
  end
:hierarchy
  begin
    root RightUpLegDummy SpineDummy LeftUpLegDummy
    RightUpLegDummy RightUpLeg
    RightUpLeg RightLeg
    RightLeg RightFoot
    RightFoot RightToes
    SpineDummy Spine
    Spine Spine1
    Spine1 HEadDummy LeftShoulder1Dummy RightShoulderDummy
    HEadDummy HEad
    LeftShoulder1Dummy LeftShoulder1
    LeftShoulder1 LeftArm
    LeftArm LeftForeArm
    LeftForeArm LeftHand
    RightShoulderDummy RightShoulder
    RightShoulder RightArm
    RightArm RightForeArm
    RightForeArm RightHand
    LeftUpLegDummy LeftUpLeg
    LeftUpLeg LeftLeg
    LeftLeg LeftFoot
    LeftFoot LeftToes
  end

:SAMPLES-PER-SECOND 30
:FRAME-RANGE 1-1700
:FULLY-SPECIFIED
:DEGREES
54
root  -8.50559 39.6423 -87.5302 -1.88361 39.4259 0.821451
RightUpLeg  -2.86883 -6.04119 0.145291
RightLeg  14.6313 -7.19691 -0.758579
RightFoot  -10.9316 -0.078388 1.20527
RightToes  -1.16417e-010 0 -3.6325e-017
Spine  8.98394 -1.26947 8.70782
Spine1  -1.64561 -0.499419 0.86616
HEad  -3.65158 -32.7922 3.87648
LeftShoulder1  1.26692 0.209637 -32.4013
LeftArm  7.69747 9.71939 -33.6404
LeftForeArm  6.85999 -10.6777 -14.038
LeftHand  0.284847 -0.966368 -5.13354
RightShoulder  7.9808 10.7671 48.986
RightArm  25.9577 3.56977 18.0074
RightForeArm  8.57684 13.8439 11.98
RightHand  0.351465 4.06176 4.04118
LeftUpLeg  -16.8984 20.7414 5.31554
LeftLeg  39.8303 -1.95931 -1.38459
LeftFoot  -2.64337 0.761943 -9.79417
LeftToes  1.03528e-008 1.55373e-010 -2.26046e-010
55
root  -7.94694 39.8153 -87.187 -1.02519 38.2914 1.39586
RightUpLeg  -1.32525 -6.12961 -0.768094
RightLeg  12.2458 -6.00863 -0.326985
RightFoot  -10.4811 -0.0831986 1.61745
RightToes  -1.16417e-010 0 -3.6325e-017
Spine  8.66854 -1.09977 7.74112
Spine1  -1.67093 -0.505294 0.52435
HEad  -3.77742 -32.2842 4.00398
LeftShoulder1  1.25935 0.23643 -32.4843
LeftArm  8.11103 10.1461 -33.8386
LeftForeArm  6.28516 -11.4428 -13.6004
LeftHand  0.290664 -1.02624 -5.18464
RightShoulder  8.13755 11.029 49.0467
RightArm  30.9096 3.70348 18.3372
RightForeArm  4.4216 16.7149 9.93893
RightHand  0.351276 4.13329 4.00356
LeftUpLeg  -16.4243 21.5998 5.02976
LeftLeg  30.361 -2.40784 -1.18774
LeftFoot  -1.75085 0.844425 -9.92379
LeftToes  1.03528e-008 1.55373e-010 -2.26046e-010
56
root  -7.3932 39.9723 -86.8378 -0.259626 37.454 1.68858
RightUpLeg  0.313854 -6.05694 -1.44221
RightLeg  9.47825 -5.11433 0.00203424
RightFoot  -9.88815 -0.0938219 2.10897
RightToes  -1.16417e-010 0 -3.6325e-017
Spine  8.14352 -1.02939 6.60587
Spine1  -1.58933 -0.625479 0.361292
HEad  -3.62914 -31.6743 4.15518
LeftShoulder1  1.25942 0.245449 -32.5928
LeftArm  8.12162 10.4106 -33.9908
LeftForeArm  6.02637 -11.6715 -13.461
LeftHand  0.298687 -1.09059 -5.27034
RightShoulder  8.16772 11.1082 48.9608
RightArm  34.3742 3.82706 18.7878
RightForeArm  1.94543 18.2347 8.73235
RightHand  0.330231 4.06756 3.77815
LeftUpLeg  -15.4466 22.6382 4.87229
LeftLeg  19.7444 -3.6637 -1.13866
LeftFoot  -0.825137 0.957933 -10.3356
LeftToes  1.03528e-008 1.55373e-010 -2.26046e-010
57
root  -6.79971 40.0853 -86.4925 0.328646 36.7805 1.74802
RightUpLeg  1.90833 -6.12473 -2.05162
RightLeg  6.95957 -4.14401 0.326318
RightFoot  -9.34188 -0.10342 2.29355
RightToes  -1.16417e-010 0 -3.6325e-017
Spine  7.59449 -1.02181 5.61105
Spine1  -1.58689 -0.754064 0.240938
HEad  -3.07961 -31.0799 4.16485
LeftShoulder1  1.26853 0.230857 -32.6986
LeftArm  7.04472 10.5062 -34.1236
LeftForeArm  6.91036 -11.0659 -13.7446
LeftHand  0.303118 -1.11906 -5.32347
RightShoulder  8.21318 11.1786 48.9971
RightArm  35.6699 3.87794 18.8644
RightForeArm  1.92851 18.2114 8.81223
RightHand  0.3387 4.24984 3.79605
LeftUpLeg  -13.3253 17.1942 6.95168
LeftLeg  8.50239 1.64536 -2.32028
LeftFoot  0.528805 1.04077 -10.0247
LeftToes  1.03528e-008 1.55373e-010 -2.26046e-010
58
root  -6.15394 40.121 -86.1479 0.65241 36.1244 1.48748
RightUpLeg  3.2496 -6.08016 -2.40852
RightLeg  5.22968 -3.43839 0.394197
RightFoot  -9.32319 -0.114794 2.92352
RightToes  -1.16417e-010 0 -3.6325e-017
Spine  7.09549 -0.991904 4.90226
Spine1  -1.63286 -0.804788 0.143266
HEad  -2.49811 -30.7134 4.30607
LeftShoulder1  1.26947 0.229074 -32.7062
LeftArm  5.49947 10.4504 -34.2458
LeftForeArm  8.3287 -10.0336 -14.202
LeftHand  0.318536 -1.15574 -5.56391
RightShoulder  8.22494 11.1912 49.0252
RightArm  33.9574 3.91376 18.9439
RightForeArm  4.87211 16.4498 10.3016
RightHand  0.331605 4.20738 3.7301
LeftUpLeg  -11.5292 10.7081 9.12485
LeftLeg  -1.72776 8.09925 -3.71137
LeftFoot  2.84083 1.19892 -9.75986
LeftToes  1.03528e-008 1.55373e-010 -2.26046e-010
59
root  -5.42196 40.0502 -85.8021 0.545535 35.7659 1.01444
RightUpLeg  4.38405 -6.19173 -2.756
RightLeg  4.90304 -2.7286 0.336535
RightFoot  -10.1755 -0.107094 3.7353
RightToes  -1.16417e-010 0 -3.6325e-017
Spine  6.77203 -1.05757 4.42585
Spine1  -1.62479 -0.952043 0.265244
HEad  -2.01535 -30.5102 4.5621
LeftShoulder1  1.27581 0.212375 -32.7025
LeftArm  4.33846 10.3204 -34.265
LeftForeArm  9.4035 -9.18166 -14.5504
LeftHand  0.325408 -1.16361 -5.67846
RightShoulder  8.25141 11.1511 49.318
RightArm  32.4524 3.87576 18.4753
RightForeArm  7.3447 14.3199 12.0391
RightHand  0.317424 4.11354 3.60053
LeftUpLeg  -11.8189 10.1972 9.63799
LeftLeg  -5.77259 8.11226 -3.59356
LeftFoot  3.10227 1.2839 -10.2611
LeftToes  1.03528e-008 1.55373e-010 -2.26046e-010
60
root  -4.63013 39.9247 -85.4738 0.221048 35.9197 0.589159
RightUpLeg  5.54635 -6.3836 -3.21322
RightLeg  5.29663 -2.49609 0.116314
RightFoot  -11.452 -0.0732015 4.69854
RightToes  -1.16417e-010 0 -3.6325e-017
Spine  6.70945 -1.21177 3.83124
Spine1  -1.54406 -1.1942 0.575395
HEad  -1.60301 -30.441 4.79216
LeftShoulder1  1.30016 0.152167 -32.7333
LeftArm  3.62005 9.89534 -34.1587
LeftForeArm  10.1851 -8.49008 -14.8253
LeftHand  0.328559 -1.17709 -5.76785
RightShoulder  8.27418 11.0408 49.8282
RightArm  27.3749 4.05498 17.5331
RightForeArm  12.4552 10.291 14.5081
RightHand  0.301314 3.90826 3.49374
LeftUpLeg  -12.6942 10.2365 9.78472
LeftLeg  -5.25811 6.99734 -3.37804
LeftFoot  2.59673 1.27893 -10.57
LeftToes  1.03528e-008 1.55373e-010 -2.26046e-010
